<mxfile host="app.diagrams.net" modified="2023-04-13T08:59:57.066Z" agent="Mozilla/5.0 (Windows NT 10.0; WOW64) AppleWebKit/537.36 (KHTML, like Gecko) Chrome/98.0.4758.102 Safari/537.36 NetType/WIFI MicroMessenger/7.0.20.1781(0x6700143B) WindowsWechat(0x63090217) XWEB/6762 Flue" etag="594D6HFXXKR4DOsXwo-a" version="21.1.7" type="github">
  <diagram name="第 1 页" id="IOcVYkyOy4ICBnBC5S5M">
    <mxGraphModel dx="818" dy="858" grid="1" gridSize="10" guides="1" tooltips="1" connect="1" arrows="1" fold="1" page="1" pageScale="1" pageWidth="827" pageHeight="1169" math="0" shadow="0">
      <root>
        <mxCell id="0" />
        <mxCell id="1" parent="0" />
        <mxCell id="PX1jeMutn08824qEmn6C-1" value="" style="shape=table;startSize=0;container=1;collapsible=0;childLayout=tableLayout;fontSize=16;" vertex="1" parent="1">
          <mxGeometry x="320" y="380" width="45" height="45" as="geometry" />
        </mxCell>
        <mxCell id="PX1jeMutn08824qEmn6C-2" value="" style="shape=tableRow;horizontal=0;startSize=0;swimlaneHead=0;swimlaneBody=0;strokeColor=inherit;top=0;left=0;bottom=0;right=0;collapsible=0;dropTarget=0;fillColor=none;points=[[0,0.5],[1,0.5]];portConstraint=eastwest;fontSize=16;" vertex="1" parent="PX1jeMutn08824qEmn6C-1">
          <mxGeometry width="45" height="15" as="geometry" />
        </mxCell>
        <mxCell id="PX1jeMutn08824qEmn6C-3" value="" style="shape=partialRectangle;html=1;whiteSpace=wrap;connectable=0;strokeColor=inherit;overflow=hidden;fillColor=none;top=0;left=0;bottom=0;right=0;pointerEvents=1;fontSize=16;" vertex="1" parent="PX1jeMutn08824qEmn6C-2">
          <mxGeometry width="15" height="15" as="geometry">
            <mxRectangle width="15" height="15" as="alternateBounds" />
          </mxGeometry>
        </mxCell>
        <mxCell id="PX1jeMutn08824qEmn6C-4" value="" style="shape=partialRectangle;html=1;whiteSpace=wrap;connectable=0;strokeColor=inherit;overflow=hidden;fillColor=none;top=0;left=0;bottom=0;right=0;pointerEvents=1;fontSize=16;" vertex="1" parent="PX1jeMutn08824qEmn6C-2">
          <mxGeometry x="15" width="15" height="15" as="geometry">
            <mxRectangle width="15" height="15" as="alternateBounds" />
          </mxGeometry>
        </mxCell>
        <mxCell id="PX1jeMutn08824qEmn6C-5" value="" style="shape=partialRectangle;html=1;whiteSpace=wrap;connectable=0;strokeColor=inherit;overflow=hidden;fillColor=none;top=0;left=0;bottom=0;right=0;pointerEvents=1;fontSize=16;" vertex="1" parent="PX1jeMutn08824qEmn6C-2">
          <mxGeometry x="30" width="15" height="15" as="geometry">
            <mxRectangle width="15" height="15" as="alternateBounds" />
          </mxGeometry>
        </mxCell>
        <mxCell id="PX1jeMutn08824qEmn6C-6" value="" style="shape=tableRow;horizontal=0;startSize=0;swimlaneHead=0;swimlaneBody=0;strokeColor=inherit;top=0;left=0;bottom=0;right=0;collapsible=0;dropTarget=0;fillColor=none;points=[[0,0.5],[1,0.5]];portConstraint=eastwest;fontSize=16;" vertex="1" parent="PX1jeMutn08824qEmn6C-1">
          <mxGeometry y="15" width="45" height="15" as="geometry" />
        </mxCell>
        <mxCell id="PX1jeMutn08824qEmn6C-7" value="" style="shape=partialRectangle;html=1;whiteSpace=wrap;connectable=0;strokeColor=inherit;overflow=hidden;fillColor=none;top=0;left=0;bottom=0;right=0;pointerEvents=1;fontSize=16;" vertex="1" parent="PX1jeMutn08824qEmn6C-6">
          <mxGeometry width="15" height="15" as="geometry">
            <mxRectangle width="15" height="15" as="alternateBounds" />
          </mxGeometry>
        </mxCell>
        <mxCell id="PX1jeMutn08824qEmn6C-8" value="" style="shape=partialRectangle;html=1;whiteSpace=wrap;connectable=0;strokeColor=inherit;overflow=hidden;fillColor=none;top=0;left=0;bottom=0;right=0;pointerEvents=1;fontSize=16;" vertex="1" parent="PX1jeMutn08824qEmn6C-6">
          <mxGeometry x="15" width="15" height="15" as="geometry">
            <mxRectangle width="15" height="15" as="alternateBounds" />
          </mxGeometry>
        </mxCell>
        <mxCell id="PX1jeMutn08824qEmn6C-9" value="" style="shape=partialRectangle;html=1;whiteSpace=wrap;connectable=0;strokeColor=inherit;overflow=hidden;fillColor=none;top=0;left=0;bottom=0;right=0;pointerEvents=1;fontSize=16;" vertex="1" parent="PX1jeMutn08824qEmn6C-6">
          <mxGeometry x="30" width="15" height="15" as="geometry">
            <mxRectangle width="15" height="15" as="alternateBounds" />
          </mxGeometry>
        </mxCell>
        <mxCell id="PX1jeMutn08824qEmn6C-10" value="" style="shape=tableRow;horizontal=0;startSize=0;swimlaneHead=0;swimlaneBody=0;strokeColor=inherit;top=0;left=0;bottom=0;right=0;collapsible=0;dropTarget=0;fillColor=none;points=[[0,0.5],[1,0.5]];portConstraint=eastwest;fontSize=16;" vertex="1" parent="PX1jeMutn08824qEmn6C-1">
          <mxGeometry y="30" width="45" height="15" as="geometry" />
        </mxCell>
        <mxCell id="PX1jeMutn08824qEmn6C-11" value="" style="shape=partialRectangle;html=1;whiteSpace=wrap;connectable=0;strokeColor=inherit;overflow=hidden;fillColor=none;top=0;left=0;bottom=0;right=0;pointerEvents=1;fontSize=16;" vertex="1" parent="PX1jeMutn08824qEmn6C-10">
          <mxGeometry width="15" height="15" as="geometry">
            <mxRectangle width="15" height="15" as="alternateBounds" />
          </mxGeometry>
        </mxCell>
        <mxCell id="PX1jeMutn08824qEmn6C-12" value="" style="shape=partialRectangle;html=1;whiteSpace=wrap;connectable=0;strokeColor=inherit;overflow=hidden;fillColor=none;top=0;left=0;bottom=0;right=0;pointerEvents=1;fontSize=16;" vertex="1" parent="PX1jeMutn08824qEmn6C-10">
          <mxGeometry x="15" width="15" height="15" as="geometry">
            <mxRectangle width="15" height="15" as="alternateBounds" />
          </mxGeometry>
        </mxCell>
        <mxCell id="PX1jeMutn08824qEmn6C-13" value="" style="shape=partialRectangle;html=1;whiteSpace=wrap;connectable=0;strokeColor=inherit;overflow=hidden;fillColor=none;top=0;left=0;bottom=0;right=0;pointerEvents=1;fontSize=16;" vertex="1" parent="PX1jeMutn08824qEmn6C-10">
          <mxGeometry x="30" width="15" height="15" as="geometry">
            <mxRectangle width="15" height="15" as="alternateBounds" />
          </mxGeometry>
        </mxCell>
        <mxCell id="PX1jeMutn08824qEmn6C-14" value="" style="verticalLabelPosition=bottom;verticalAlign=top;html=1;shape=mxgraph.basic.rect;fillColor2=none;strokeWidth=1;size=20;indent=5;" vertex="1" parent="1">
          <mxGeometry x="100" y="400" width="120" height="60" as="geometry" />
        </mxCell>
      </root>
    </mxGraphModel>
  </diagram>
</mxfile>
